<svg width="100" height="100" viewBox="0 0 100 100" fill="none" xmlns="http://www.w3.org/2000/svg">
<g clip-path="url(#clip0_40_1252)">
<path d="M99.0144 41.3479C98.7436 41.1354 96.2123 39.25 90.8727 39.25C89.4623 39.2563 88.0561 39.375 86.6665 39.6063C85.6331 32.6188 79.9602 29.3354 79.6977 29.1834L78.2644 28.3667L77.3206 29.7084C76.1394 31.5125 75.0956 33.375 74.5894 35.4646C73.6331 39.4542 74.2144 43.2 76.2686 46.4021C73.7852 47.7667 69.554 47.8875 68.7498 47.9167H3.29564C1.57481 47.9188 0.178978 49.2917 0.168561 50.9875C0.0914776 56.6813 0.903978 62.5563 2.88939 67.9021C5.15814 73.7729 8.53523 78.0979 12.9269 80.7438C17.8477 83.7167 25.8436 85.4167 34.9081 85.4167C39.0019 85.4292 43.0894 85.0646 47.1144 84.325C52.7102 83.3104 58.0956 81.3813 63.0456 78.6167C67.1248 76.2854 70.7956 73.3209 73.9186 69.8354C79.1373 64.0063 82.2456 57.5167 84.5581 51.7479C84.8686 51.7479 85.179 51.7479 85.479 51.7479C91.1936 51.7479 94.7061 49.4917 96.6436 47.6021C97.9311 46.3959 98.9373 44.9271 99.5894 43.3L99.9998 42.1167L99.0144 41.3479Z" fill="#2395EC"/>
<path d="M16.6668 45.8333H10.4168C9.26683 45.8333 8.3335 44.9 8.3335 43.75V37.5C8.3335 36.35 9.26683 35.4166 10.4168 35.4166H16.6668C17.8168 35.4166 18.7502 36.35 18.7502 37.5V43.75C18.7502 44.9 17.8168 45.8333 16.6668 45.8333Z" fill="#2395EC"/>
<path d="M29.1668 45.8333H22.9168C21.7668 45.8333 20.8335 44.9 20.8335 43.75V37.5C20.8335 36.35 21.7668 35.4166 22.9168 35.4166H29.1668C30.3168 35.4166 31.2502 36.35 31.2502 37.5V43.75C31.2502 44.9 30.3168 45.8333 29.1668 45.8333Z" fill="#2395EC"/>
<path d="M41.6668 45.8333H35.4168C34.2668 45.8333 33.3335 44.9 33.3335 43.75V37.5C33.3335 36.35 34.2668 35.4166 35.4168 35.4166H41.6668C42.8168 35.4166 43.7502 36.35 43.7502 37.5V43.75C43.7502 44.9 42.8168 45.8333 41.6668 45.8333Z" fill="#2395EC"/>
<path d="M54.1668 45.8333H47.9168C46.7668 45.8333 45.8335 44.9 45.8335 43.75V37.5C45.8335 36.35 46.7668 35.4166 47.9168 35.4166H54.1668C55.3168 35.4166 56.2502 36.35 56.2502 37.5V43.75C56.2502 44.9 55.3168 45.8333 54.1668 45.8333Z" fill="#2395EC"/>
<path d="M29.1668 33.3333H22.9168C21.7668 33.3333 20.8335 32.4 20.8335 31.25V25C20.8335 23.85 21.7668 22.9166 22.9168 22.9166H29.1668C30.3168 22.9166 31.2502 23.85 31.2502 25V31.25C31.2502 32.4 30.3168 33.3333 29.1668 33.3333Z" fill="#2395EC"/>
<path d="M41.6668 33.3333H35.4168C34.2668 33.3333 33.3335 32.4 33.3335 31.25V25C33.3335 23.85 34.2668 22.9166 35.4168 22.9166H41.6668C42.8168 22.9166 43.7502 23.85 43.7502 25V31.25C43.7502 32.4 42.8168 33.3333 41.6668 33.3333Z" fill="#2395EC"/>
<path d="M54.1668 33.3333H47.9168C46.7668 33.3333 45.8335 32.4 45.8335 31.25V25C45.8335 23.85 46.7668 22.9166 47.9168 22.9166H54.1668C55.3168 22.9166 56.2502 23.85 56.2502 25V31.25C56.2502 32.4 55.3168 33.3333 54.1668 33.3333Z" fill="#2395EC"/>
<path d="M54.1668 20.8333H47.9168C46.7668 20.8333 45.8335 19.9 45.8335 18.75V12.5C45.8335 11.35 46.7668 10.4166 47.9168 10.4166H54.1668C55.3168 10.4166 56.2502 11.35 56.2502 12.5V18.75C56.2502 19.9 55.3168 20.8333 54.1668 20.8333Z" fill="#2395EC"/>
<path d="M66.6668 45.8333H60.4168C59.2668 45.8333 58.3335 44.9 58.3335 43.75V37.5C58.3335 36.35 59.2668 35.4166 60.4168 35.4166H66.6668C67.8168 35.4166 68.7502 36.35 68.7502 37.5V43.75C68.7502 44.9 67.8168 45.8333 66.6668 45.8333Z" fill="#2395EC"/>
</g>
<defs>
<clipPath id="clip0_40_1252">
<rect width="100" height="100" fill="white"/>
</clipPath>
</defs>
</svg>
