<svg width="100" height="100" viewBox="0 0 100 100" fill="none" xmlns="http://www.w3.org/2000/svg">
<path d="M87.9165 46.0417L53.9582 12.0834C52.9165 11.0417 51.4582 10.4167 49.9998 10.4167C48.5415 10.4167 47.0832 11.0417 46.0415 12.0834L38.7498 19.3751L47.2915 27.9167C48.1248 27.5001 48.9582 27.2917 49.9998 27.2917C53.5415 27.2917 56.2498 30.0001 56.2498 33.5417C56.2498 34.5834 56.0415 35.4167 55.6248 36.2501L63.9582 44.5834C64.7915 44.1667 65.6248 43.9584 66.6665 43.9584C70.2082 43.9584 72.9165 46.6667 72.9165 50.2084C72.9165 53.7501 70.2082 56.4584 66.6665 56.4584C63.1248 56.4584 60.4165 53.7501 60.4165 50.2084C60.4165 49.1667 60.6248 48.3334 61.0415 47.5001L52.7082 39.1667C52.4998 39.1667 52.2915 39.3751 52.0832 39.3751V61.0417C54.5832 61.8751 56.2498 64.1667 56.2498 66.8751C56.2498 70.4167 53.5415 73.1251 49.9998 73.1251C46.4582 73.1251 43.7498 70.4167 43.7498 66.8751C43.7498 64.1667 45.4165 61.8751 47.9165 61.0417V39.1667C45.4165 38.3334 43.7498 36.0417 43.7498 33.3334C43.7498 32.2917 43.9582 31.4584 44.3748 30.6251L35.8332 22.0834L12.0832 46.0417C11.0415 47.0834 10.4165 48.5417 10.4165 50.0001C10.4165 51.4584 11.0415 52.9167 12.0832 53.9584L46.0415 87.9167C47.0832 88.9584 48.5415 89.5834 49.9998 89.5834C51.4582 89.5834 52.9165 88.9584 53.9582 87.9167L87.9165 53.9584C88.9582 52.9167 89.5832 51.4584 89.5832 50.0001C89.5832 48.5417 88.9582 47.0834 87.9165 46.0417Z" fill="#F4511E"/>
</svg>
