<svg width="72" height="70" viewBox="0 0 72 70" fill="none" xmlns="http://www.w3.org/2000/svg">
<path d="M35.8584 0.5C55.3907 0.5 71.2175 16.3261 71.2178 35.8584C71.2178 51.4782 61.0993 64.7257 47.0576 69.4102L47.0264 69.4209L46.9941 69.4268C45.997 69.6185 45.2242 69.4211 44.7012 68.9414C44.1942 68.4764 44.0059 67.8217 44.0059 67.2568C44.0059 66.6821 44.014 65.4531 44.0225 63.79C44.031 62.1254 44.0391 60.0217 44.0391 57.6914C44.0391 54.5559 42.9665 52.5763 41.8545 51.626L40.9785 50.8779L42.123 50.749C45.976 50.3153 49.832 49.3761 52.7236 46.9551C55.5905 44.5547 57.5879 40.6286 57.5879 34.043C57.5878 30.3587 56.2985 27.3693 54.1455 25.0195L53.9297 24.7842L54.0518 24.4902C54.3758 23.7104 55.4973 20.4096 53.7949 15.8975C53.7355 15.8908 53.664 15.8846 53.5801 15.8809C53.2471 15.866 52.7164 15.887 51.9746 16.0439C50.4901 16.3581 48.1553 17.2202 44.8652 19.4453L44.6738 19.5742L44.4512 19.5127C41.7178 18.7541 38.7786 18.3736 35.8584 18.3623C32.9385 18.3737 29.9996 18.7541 27.2666 19.5127L27.0439 19.5742L26.8525 19.4453C23.5624 17.2201 21.2246 16.3581 19.7373 16.0439C18.9941 15.8869 18.4621 15.866 18.1279 15.8809C18.0436 15.8846 17.9718 15.8908 17.9121 15.8975C16.2215 20.4078 17.3515 23.7089 17.668 24.4951L17.7852 24.7861L17.5732 25.0186C15.4293 27.3704 14.1182 30.3608 14.1182 34.043C14.1182 40.6113 16.1132 44.5435 18.9756 46.9541C21.8619 49.3848 25.709 50.3379 29.5488 50.7715L30.666 50.8975L29.8242 51.6426C28.9397 52.4254 28.0792 53.8424 27.7754 56.002L27.7373 56.2764L27.4834 56.3887C26.457 56.8461 24.6067 57.4907 22.585 57.3096C20.5284 57.1253 18.3423 56.0892 16.7041 53.2793L16.6982 53.2686L16.6953 53.2646C16.6928 53.2602 16.6886 53.2525 16.6826 53.2422C16.6705 53.2215 16.6519 53.1892 16.626 53.1475C16.574 53.064 16.4942 52.9416 16.3877 52.793C16.1742 52.4951 15.8544 52.0946 15.4326 51.6875C14.5872 50.8715 13.3615 50.0575 11.7764 49.9414C11.7742 49.9414 11.772 49.9414 11.7695 49.9414C11.7493 49.9416 11.7183 49.942 11.6797 49.9434C11.6019 49.946 11.4936 49.9518 11.374 49.9648C11.1153 49.9931 10.8765 50.0476 10.7432 50.123C10.7393 50.1252 10.7357 50.1279 10.7324 50.1299C10.8043 50.2855 11.0717 50.6077 11.8193 51.1201L11.8213 51.1211C11.844 51.1329 11.8747 51.15 11.9131 51.1719C11.9901 51.2158 12.0974 51.281 12.2285 51.3711C12.4912 51.5516 12.8502 51.8323 13.2578 52.2422C14.0232 53.0118 14.9546 54.2322 15.7432 56.0938L15.8984 56.4746L15.9062 56.4941L15.9121 56.5137C15.9126 56.5151 15.9136 56.5181 15.915 56.5225C15.918 56.5315 15.9234 56.5468 15.9307 56.5674C15.9453 56.6088 15.9691 56.6729 16.0029 56.7549C16.0707 56.919 16.1791 57.1561 16.3389 57.4365C16.659 57.9985 17.1814 58.7292 17.9873 59.3984C19.5786 60.7199 22.3531 61.8658 27.0723 60.8447L27.6758 60.7139L27.6777 61.332C27.689 64.2217 27.7236 66.4331 27.7236 67.2568C27.7236 67.8251 27.5299 68.4738 27.0234 68.9346C26.5028 69.4081 25.7359 69.6068 24.751 69.4277L24.7168 69.4219L24.6826 69.4111C10.6293 64.7381 0.5 51.4782 0.5 35.8584C0.500256 16.3263 16.3263 0.500256 35.8584 0.5Z" fill="black" stroke="white"/>
</svg>
