<svg width="80" height="80" viewBox="0 0 80 80" fill="none" xmlns="http://www.w3.org/2000/svg">
<path d="M56.695 69.9833L23.3617 70.015C16.0283 70.0217 10.0233 64.0283 10.015 56.695L9.98334 23.3617C9.97668 16.0283 15.97 10.0233 23.3033 10.015L56.6367 9.98334C63.97 9.97668 69.975 15.97 69.9833 23.3033L70.015 56.6367C70.0233 63.9717 64.0283 69.9767 56.695 69.9833Z" fill="url(#paint0_radial_36_310)"/>
<path d="M56.695 69.9833L23.3617 70.015C16.0283 70.0217 10.0233 64.0283 10.015 56.695L9.98334 23.3617C9.97668 16.0283 15.97 10.0233 23.3033 10.015L56.6367 9.98334C63.97 9.97668 69.975 15.97 69.9833 23.3033L70.015 56.6367C70.0233 63.9717 64.0283 69.9767 56.695 69.9833Z" fill="url(#paint1_radial_36_310)"/>
<path d="M40 51.6667C33.5683 51.6667 28.3333 46.4334 28.3333 40C28.3333 33.5667 33.5683 28.3334 40 28.3334C46.4317 28.3334 51.6667 33.5667 51.6667 40C51.6667 46.4334 46.4317 51.6667 40 51.6667ZM40 31.6667C35.405 31.6667 31.6667 35.405 31.6667 40C31.6667 44.595 35.405 48.3334 40 48.3334C44.595 48.3334 48.3333 44.595 48.3333 40C48.3333 35.405 44.595 31.6667 40 31.6667Z" fill="white"/>
<path d="M52.5 30C53.8807 30 55 28.8807 55 27.5C55 26.1193 53.8807 25 52.5 25C51.1193 25 50 26.1193 50 27.5C50 28.8807 51.1193 30 52.5 30Z" fill="white"/>
<path d="M50 61.6667H30C23.5683 61.6667 18.3333 56.4334 18.3333 50V30C18.3333 23.5667 23.5683 18.3334 30 18.3334H50C56.4317 18.3334 61.6667 23.5667 61.6667 30V50C61.6667 56.4334 56.4317 61.6667 50 61.6667ZM30 21.6667C25.405 21.6667 21.6667 25.405 21.6667 30V50C21.6667 54.595 25.405 58.3334 30 58.3334H50C54.595 58.3334 58.3333 54.595 58.3333 50V30C58.3333 25.405 54.595 21.6667 50 21.6667H30Z" fill="white"/>
<defs>
<radialGradient id="paint0_radial_36_310" cx="0" cy="0" r="1" gradientUnits="userSpaceOnUse" gradientTransform="translate(32.3 70.0583) scale(74.8317 74.8317)">
<stop stop-color="#FFDD55"/>
<stop offset="0.328" stop-color="#FF543F"/>
<stop offset="0.348" stop-color="#FC5245"/>
<stop offset="0.504" stop-color="#E64771"/>
<stop offset="0.643" stop-color="#D53E91"/>
<stop offset="0.761" stop-color="#CC39A4"/>
<stop offset="0.841" stop-color="#C837AB"/>
</radialGradient>
<radialGradient id="paint1_radial_36_310" cx="0" cy="0" r="1" gradientUnits="userSpaceOnUse" gradientTransform="translate(19.6433 9.23385) scale(49.6883 33.1073)">
<stop stop-color="#4168C9"/>
<stop offset="0.999" stop-color="#4168C9" stop-opacity="0"/>
</radialGradient>
</defs>
</svg>
