<svg width="100" height="100" viewBox="0 0 100 100" fill="none" xmlns="http://www.w3.org/2000/svg">
<path d="M49.2707 51.8709C47.1915 48.5188 45.6832 45.7396 43.5936 40.5063C40.0603 31.6667 65.0832 23.6792 54.9373 8.3313C59.3353 18.9334 39.1519 25.4875 37.2769 34.3167C35.5623 42.4375 49.2603 51.8709 49.2707 51.8709Z" fill="#F44336"/>
<path d="M49.7457 35.9792C49.3457 41.2209 54.3895 44.0146 54.5353 47.8438C54.652 50.9605 51.5207 53.5584 51.5207 53.5584C51.5207 53.5584 57.2041 52.4417 58.977 47.6875C60.9457 42.4084 55.1561 38.7938 55.752 34.5667C56.3082 30.5292 68.3166 23.0188 68.3166 23.0188C68.3166 23.0188 50.6478 24.1896 49.7457 35.9792Z" fill="#F44336"/>
<path d="M66.8414 52.198C70.4956 51.3771 73.5769 53.7042 73.5769 56.3855C73.5769 62.4292 65.1998 68.1417 65.1998 68.1417C65.1998 68.1417 78.1685 66.5959 78.1685 56.673C78.1685 50.1105 71.7998 48.4709 66.8414 52.198ZM60.6852 57.073C60.6852 57.073 64.7289 54.1917 65.806 53.1105C55.8831 55.2167 33.2269 55.5001 33.2269 53.6709C33.2269 51.9855 40.5331 50.2584 40.5331 50.2584C40.5331 50.2584 24.3394 50.0251 24.3394 54.8021C24.3394 59.7813 45.5373 60.1376 60.6852 57.073Z" fill="#1565C0"/>
<path d="M58.1978 61.6063C48.8041 64.7293 31.502 63.7313 36.627 59.5376C34.1312 59.5376 30.4312 61.5438 30.4312 63.473C30.4312 67.3418 49.1437 70.3293 62.9936 64.6647L58.1978 61.6063Z" fill="#1565C0"/>
<path d="M38.929 68.2063C35.5207 68.2063 33.3145 70.4021 33.3145 72.0021C33.3145 76.9834 53.6478 77.4855 61.704 72.4292L56.5832 69.0292C50.5645 71.675 35.4457 72.0396 38.929 68.2063Z" fill="#1565C0"/>
<path d="M75.5854 76.3167C75.5854 74.3667 73.3875 73.448 72.6 73.0084C77.2417 84.2021 26.1062 83.3334 26.1062 76.725C26.1062 75.223 29.8708 73.7521 33.35 74.448L30.3917 72.7C23.4583 71.6125 18.75 74.6605 18.75 77.1188C18.75 88.5834 75.5854 88.0313 75.5854 76.3167Z" fill="#1565C0"/>
<path d="M81.2501 80.425C72.6126 88.9563 50.7105 92.0646 28.6855 86.7938C50.7105 96.175 81.146 90.8917 81.2501 80.425Z" fill="#1565C0"/>
</svg>
