<svg width="100" height="100" viewBox="0 0 100 100" fill="none" xmlns="http://www.w3.org/2000/svg">
<path d="M51.0417 68.5C51.0417 68.5 51.0208 68.4167 51 68.25C51.0417 68.4167 51.0417 68.5 51.0417 68.5Z" fill="#F50057"/>
<path d="M57.0312 17.9687C57.0312 17.9687 56.25 15.1041 57.2917 12.7604C58.3333 10.4166 58.3333 8.85414 56.25 6.51039C60.4167 6.24997 61.9792 9.11456 61.9792 9.11456L62.0312 9.44581C62.2771 11.0416 61.4521 12.5583 60.0604 13.3791C58.7896 14.1271 57.4229 15.4937 57.0312 17.9687Z" fill="#F50057"/>
<path d="M86.7294 75.5C86.7711 75.0625 87.4377 69.1667 85.9377 66.4167C82.8127 75.25 79.6877 83.3333 70.5836 89.0625C71.8752 86.4583 73.9586 82.2917 76.0419 76.0417C69.7919 84.375 57.2919 92.7083 47.9169 93.2292C54.2502 89.7292 57.8127 85.2292 59.3752 82.2917C59.3752 82.2917 55.7294 83.3333 51.2919 83.8542C57.2919 80.2083 61.4586 73.7083 59.3752 63.5417C55.2086 76.5625 49.4794 80.7292 41.9169 81.5C34.3752 82.2917 27.6044 78.375 27.6044 78.375L30.2086 78.125C30.2086 78.125 23.4377 72.9167 25.7919 66.1458C25.8961 65.8125 26.0211 65.5 26.1669 65.2083C27.8752 61.4167 33.6877 63.3333 33.0836 67.4375V67.4583C33.0836 67.4583 34.8961 72.3958 39.8336 71.0833C41.4169 68.5 42.4586 65.875 42.4586 65.875L43.2294 69.2708C43.2294 69.2708 46.8752 67.7083 46.8752 64.8333C50.0002 66.0208 50.7919 67.5 50.9794 68.1458C50.4377 65.2292 45.7294 45.1667 20.7919 45.4583L16.4377 49.5C16.1461 49.7708 15.6877 49.5417 15.7294 49.1667L16.0627 45.8333L16.3544 45.5417C16.2711 45.5625 16.1669 45.5417 16.0836 45.5417L16.0627 45.8333L14.3544 47.4167C14.0627 47.6875 13.6044 47.4583 13.6461 47.0833L13.8544 44.9583C10.2294 43.4167 9.89606 39.3333 9.89606 39.3333C9.89606 39.3333 5.37523 38.0625 7.29189 32.2917C8.33356 29.1667 10.8336 28.8542 11.8961 29.1042C13.2502 29.4167 14.6461 29.4375 15.9377 28.9167C17.8127 28.1667 20.2086 26.7292 21.8752 23.9583C25.0002 18.75 29.6877 16.6667 39.8336 16.6667C53.2711 16.6667 58.6877 20.7917 59.3127 21.2917C58.9377 20.8542 56.6669 17.8333 61.4586 13.2917C66.1877 8.79167 65.3336 7.72917 65.1461 7.5625C65.8544 7.77083 75.0419 10.8958 76.0419 22.9167C77.0836 35.4167 62.5002 38.0208 62.5002 38.0208C62.5002 38.0208 81.2502 41.6667 81.5002 23.9583C85.1669 26.0417 92.7086 33.8542 93.7502 50.7917C94.7711 67.2083 87.1669 75.0625 86.7294 75.5Z" fill="#F50057"/>
<path d="M16.3542 45.5416L16.0625 45.8333L16.0833 45.5416C16.1667 45.5416 16.2708 45.5625 16.3542 45.5416Z" fill="#F50057"/>
<path d="M16.3542 45.5416L16.0625 45.8333L16.0833 45.5416C16.1667 45.5416 16.2708 45.5625 16.3542 45.5416Z" fill="#F50057"/>
</svg>
