<svg width="100" height="100" viewBox="0 0 100 100" fill="none" xmlns="http://www.w3.org/2000/svg">
<path d="M72.8032 46.7211C72.9188 47.4453 73.0376 48.1695 73.1798 48.8773H80.1759V46.7211H72.8032ZM73.9626 52.1086C74.1071 52.6039 74.2603 53.0969 74.4298 53.5875C74.836 53.7898 75.2321 54.0156 75.6149 54.2672H84.4837V52.1086H73.9626ZM59.5634 53.1101C59.2306 53.2312 58.9048 53.3726 58.5853 53.5265V53.5297C58.9056 53.375 59.2298 53.2312 59.5634 53.1101ZM27.3384 80.1179V82.2742H53.2423V80.1179H27.3384ZM42.4243 85.5054V87.6554H63.7501V85.5054H42.4243Z" fill="#3C6EB4"/>
<path d="M47.7453 12.7031C43.9094 12.7031 40.1508 13.1461 37.9125 14.0367C31.7484 16.293 27.0141 22.4547 25.6109 29.9195C23.7633 38.6586 23.8734 45.4984 22.0391 51.9336C22.8777 51.2943 23.8069 50.7834 24.7961 50.418C26.2289 49.8508 28.6312 49.5664 31.0844 49.5664C33.5375 49.5664 36.0453 49.8516 37.6711 50.418C41.2422 51.7227 44.0594 55.0742 45.2258 59.2336H52.8188C54.3742 56.3578 56.7484 54.1375 59.5633 53.1102C62.625 51.8961 69.8484 51.8992 73.3266 53.1102C73.7039 53.2477 74.0703 53.4148 74.4313 53.5937C72.0391 46.6672 72.343 39.4133 70.3359 29.9195C68.9336 22.4547 64.1977 16.293 58.0344 14.0367C55.4922 13.1492 51.5805 12.7039 47.7453 12.7031Z" fill="#CCCCCC"/>
<path d="M35.3711 38.8961C34.6788 38.897 34.0151 39.1874 33.5258 39.7034C33.0365 40.2195 32.7617 40.9191 32.7617 41.6485C32.7617 42.3779 33.0365 43.0774 33.5258 43.5935C34.0151 44.1096 34.6788 44.3999 35.3711 44.4008C36.0636 44.4002 36.7275 44.1099 37.2169 43.5938C37.7063 43.0777 37.9813 42.378 37.9812 41.6485C37.9813 40.9191 37.7064 40.2195 37.2172 39.7034C36.7279 39.1874 36.0634 38.897 35.3711 38.8961ZM61.7695 38.8961C61.0772 38.897 60.4135 39.1874 59.9242 39.7034C59.435 40.2195 59.1602 40.9191 59.1602 41.6485C59.1602 42.3779 59.435 43.0774 59.9242 43.5935C60.4135 44.1096 61.0772 44.3999 61.7695 44.4008C62.113 44.4015 62.4532 44.3307 62.7707 44.1927C63.0882 44.0547 63.3768 43.8521 63.6199 43.5964C63.863 43.3408 64.0558 43.0371 64.1874 42.7029C64.319 42.3686 64.3867 42.0103 64.3867 41.6485C64.3867 41.2866 64.319 40.9283 64.1874 40.5941C64.0558 40.2598 63.863 39.9562 63.6199 39.7005C63.3768 39.4449 63.0882 39.2422 62.7707 39.1042C62.4532 38.9662 62.113 38.8955 61.7695 38.8961Z" fill="#E7E8E9"/>
<path d="M39.7694 39.6133L30.0601 42.2164L30.3382 43.257L40.0491 40.6539L39.7694 39.6133ZM58.1444 39.6133L57.8647 40.6539L67.5733 43.257L67.853 42.2164L58.1444 39.6133ZM40.7413 41.182L30.9765 46.8219L31.5155 47.7539L41.2788 42.1148L40.7413 41.182ZM57.178 41.182L56.639 42.1148L66.403 47.7539L66.9421 46.8219L57.178 41.182ZM41.4554 43.0531L34.7312 49.7867C35.189 49.8445 35.6249 49.9172 36.0413 49.9984L42.2171 43.8141L41.4554 43.0531ZM56.4632 43.0531L55.7022 43.8141L64.1468 52.2719C64.6249 52.2406 65.1132 52.2195 65.6077 52.2094L56.4632 43.0531ZM41.7819 45.5047L38.6905 50.8641C39.0116 51.0227 39.3265 51.1969 39.6319 51.3891L42.7155 46.0422L41.7819 45.5047ZM56.1374 45.5047L55.2038 46.0422L59.3343 53.2047C59.4108 53.1742 59.4851 53.1383 59.5632 53.1102C59.8054 53.0141 60.0827 52.9281 60.3733 52.8477L56.1374 45.5047Z" fill="#A7A9AC"/>
<path d="M57.2353 39.7187C57.2354 40.767 57.0185 41.805 56.597 42.7736C56.1756 43.7421 55.5578 44.6221 54.7789 45.3634C54 46.1047 53.0754 46.6927 52.0577 47.0939C51.04 47.4951 49.9493 47.7015 48.8478 47.7015C47.7462 47.7016 46.6553 47.4952 45.6376 47.0941C44.6198 46.6929 43.695 46.1049 42.9161 45.3636C42.1372 44.6223 41.5193 43.7423 41.0978 42.7737C40.6763 41.8052 40.4594 40.7671 40.4595 39.7187C40.4595 38.6704 40.6764 37.6324 41.098 36.664C41.5196 35.6955 42.1375 34.8155 42.9164 34.0743C43.6953 33.3331 44.62 32.7452 45.6378 32.3441C46.6555 31.943 47.7462 31.7366 48.8478 31.7367C51.0721 31.7369 53.2053 32.5779 54.7781 34.0748C56.3509 35.5717 57.2353 37.6019 57.2353 39.7187Z" fill="white"/>
<path d="M52.4274 38.2797C52.1462 37.5508 52.1462 36.093 51.3024 36.093C50.4587 36.093 49.6774 35.5461 48.8478 35.5461C48.0173 35.5461 47.2384 36.093 46.3931 36.093C45.5493 36.093 45.5493 37.5508 45.2681 38.2805C44.9868 39.0086 48.8478 41.3774 48.8478 41.3774C48.8478 41.3774 52.7087 39.0086 52.4274 38.2797Z" fill="#808080"/>
<path d="M44.8428 58.0391C45.1006 58.7313 45.3037 59.4532 45.4623 60.1961H52.3365C52.6826 59.436 53.085 58.7141 53.5357 58.0383L44.8428 58.0391ZM79.3561 58.0399C79.8121 58.7254 80.2124 59.4465 80.5529 60.1961H89.2029V58.0399H79.3561Z" fill="#3C6EB4"/>
<path d="M31.0854 49.5664C28.6322 49.5664 26.2291 49.8508 24.7963 50.418C20.8541 51.8586 17.8299 55.7914 16.933 60.5547C16.4643 62.7625 16.1947 64.7664 15.9658 66.6539H46.5018C46.2729 64.7664 46.0096 62.7633 45.5408 60.5547C44.6447 55.7914 41.6135 51.8594 37.6705 50.4188C36.0439 49.8523 33.5377 49.5672 31.0846 49.5672L31.0854 49.5664Z" fill="#CCCCCC"/>
<path d="M23.1743 66.2812C22.818 66.2925 22.4745 66.4231 22.1938 66.6539H24.1938C23.9025 66.415 23.5439 66.2842 23.1743 66.282V66.2812ZM40.0649 66.2812C39.7084 66.2923 39.3646 66.4229 39.0837 66.6539H41.0853C40.7935 66.4146 40.4343 66.2838 40.0642 66.282L40.0649 66.2812Z" fill="#E7E8E9"/>
<path d="M25.9392 66.5524L25.561 66.6539H25.9673L25.9392 66.5524ZM37.7923 66.5524L37.7649 66.6539H38.1712L37.7923 66.5524Z" fill="#A7A9AC"/>
<path d="M31.7952 61.7188C30.4036 61.7223 29.0679 62.2391 28.07 63.1598C27.0721 64.0806 26.4901 65.3335 26.4468 66.6539H37.1358C37.0926 65.3347 36.5116 64.083 35.5154 63.1624C34.5192 62.2418 33.1855 61.7243 31.7952 61.7188Z" fill="white"/>
<path d="M31.7953 64.1453C31.264 64.1453 30.7664 64.4968 30.2265 64.4968C29.6867 64.4968 29.6828 65.4249 29.5031 65.8898C29.4406 66.0523 29.7125 66.3453 30.0773 66.6539H33.5117C33.8773 66.3453 34.143 66.0523 34.0797 65.8898C33.9 65.4249 33.9031 64.4968 33.3633 64.4968C32.8242 64.4968 32.3265 64.1453 31.7953 64.1453Z" fill="#808080"/>
<path d="M71.6685 1.14604L28.1232 1.27416C27.962 1.27489 27.803 1.31177 27.6579 1.38208C27.5129 1.45238 27.3854 1.55433 27.2849 1.68041L0.230251 35.846C0.130997 35.9724 0.0612465 36.1194 0.0261019 36.2762C-0.00904281 36.433 -0.00869303 36.5956 0.0271256 36.7523L9.83963 79.2234C9.87633 79.3816 9.94831 79.5294 10.0502 79.6559C10.152 79.7824 10.2812 79.8843 10.4279 79.9538L49.7131 98.7515C49.8593 98.8203 50.0191 98.8553 50.1807 98.8539C50.3423 98.8525 50.5016 98.8149 50.6467 98.7437L89.8248 79.7163C89.9709 79.6453 90.0991 79.5421 90.1998 79.4146C90.3004 79.287 90.3709 79.1383 90.406 78.9796L99.974 36.4546C100.009 36.2975 100.008 36.1346 99.9721 35.9778C99.9358 35.8209 99.865 35.6742 99.7646 35.5484L72.5154 1.54447C72.4133 1.41879 72.2843 1.31771 72.1378 1.24874C71.9913 1.17976 71.8304 1.14466 71.6685 1.14604ZM71.1553 3.30229L97.7568 36.4898L88.4177 78.007L50.1795 96.582L11.8271 78.2367L2.24588 36.7734L28.6506 3.42416L71.1553 3.30229Z" fill="#892CA0"/>
<path d="M83.3154 74.7945C82.842 71.5726 82.6123 68.0679 81.7381 63.9453C80.7787 58.8531 77.5404 54.6484 73.3256 53.1093C69.8475 51.8984 62.6248 51.8953 59.5631 53.1093C55.3482 54.6484 52.11 58.8531 51.1506 63.9453C50.2771 68.0687 50.0467 71.5726 49.5732 74.7945" fill="#CCCCCC"/>
<path d="M57.8279 70.0687C57.5932 70.0688 57.3609 70.1175 57.1441 70.2121C56.9273 70.3066 56.7304 70.4451 56.5645 70.6197C56.3987 70.7942 56.2672 71.0014 56.1775 71.2294C56.0878 71.4574 56.0418 71.7017 56.042 71.9484C56.0418 72.1951 56.0878 72.4394 56.1775 72.6674C56.2672 72.8954 56.3987 73.1026 56.5645 73.2772C56.7304 73.4517 56.9273 73.5902 57.1441 73.6847C57.3609 73.7793 57.5932 73.828 57.8279 73.8281C58.3018 73.8277 58.7561 73.6294 59.0908 73.2769C59.4256 72.9244 59.6135 72.4465 59.6131 71.9484C59.6135 71.4503 59.4256 70.9725 59.0908 70.6199C58.7561 70.2674 58.3018 70.0692 57.8279 70.0687ZM75.8826 70.0687C75.6479 70.0688 75.4155 70.1175 75.1988 70.2121C74.982 70.3066 74.785 70.4451 74.6192 70.6197C74.4533 70.7942 74.3218 71.0014 74.2322 71.2294C74.1425 71.4574 74.0965 71.7017 74.0967 71.9484C74.0965 72.1951 74.1425 72.4394 74.2322 72.6674C74.3218 72.8954 74.4533 73.1026 74.6192 73.2772C74.785 73.4517 74.982 73.5902 75.1988 73.6847C75.4155 73.7793 75.6479 73.828 75.8826 73.8281C76.3565 73.8277 76.8108 73.6294 77.1455 73.2769C77.4803 72.9244 77.6682 72.4465 77.6678 71.9484C77.6682 71.4503 77.4803 70.9725 77.1455 70.6199C76.8108 70.2674 76.3565 70.0692 75.8826 70.0687Z" fill="#E7E8E9"/>
<path d="M60.792 70.3938L54.1514 72.1727L54.4311 73.2133L61.0701 71.4344L60.792 70.3938ZM73.4451 70.3938L73.1654 71.4344L79.8061 73.2133L80.0857 72.1727L73.4451 70.3938ZM61.4139 71.4813L54.7389 75.3297L55.2764 76.2618L61.9506 72.4149L61.4139 71.4813ZM72.824 71.4813L72.285 72.4149L78.9592 76.2618L79.4982 75.3297L72.824 71.4813Z" fill="#A7A9AC"/>
<path d="M72.7788 70.6328C72.7788 72.0769 72.1745 73.4618 71.0988 74.483C70.0232 75.5041 68.5642 76.0779 67.0429 76.0781C65.5214 76.0781 64.0622 75.5044 62.9864 74.4832C61.9106 73.462 61.3062 72.077 61.3062 70.6328C61.3062 69.1886 61.9106 67.8036 62.9864 66.7824C64.0622 65.7612 65.5214 65.1875 67.0429 65.1875C68.5642 65.1877 70.0232 65.7615 71.0988 66.7827C72.1745 67.8038 72.7788 69.1888 72.7788 70.6328Z" fill="white"/>
<path d="M69.4906 69.65C69.2984 69.1531 69.2984 68.1578 68.721 68.1578C68.1445 68.1578 67.6117 67.7859 67.0429 67.7859C66.4749 67.7859 65.9414 68.1585 65.364 68.1585C64.7874 68.1585 64.7874 69.1531 64.5945 69.6507C64.4023 70.1476 67.0429 71.7632 67.0429 71.7632C67.0429 71.7632 69.6835 70.1476 69.4906 69.65Z" fill="#808080"/>
<path d="M48.8485 30.9313C43.8009 30.9313 39.6532 34.8547 39.6532 39.7219C39.6532 44.5891 43.8009 48.5125 48.8485 48.5125C53.897 48.5125 58.0446 44.5891 58.0446 39.7219C58.0446 34.8547 53.8954 30.9313 48.8485 30.9313ZM48.8485 32.5477C53.0657 32.5477 56.429 35.7727 56.429 39.7219C56.429 43.6719 53.0657 46.8953 48.8485 46.8953C44.6321 46.8953 41.2681 43.6719 41.2681 39.7219C41.2681 35.7727 44.6321 32.5477 48.8485 32.5477ZM31.7954 60.9071C28.472 60.9071 25.7173 63.4539 25.6274 66.6539H27.2438C27.3313 64.3727 29.304 62.5227 31.7954 62.5227C34.2876 62.5227 36.2579 64.3727 36.3454 66.6539H37.961C37.8728 63.4547 35.1173 60.9071 31.7954 60.9071ZM67.0446 64.3813C63.4626 64.3813 60.4977 67.1625 60.4977 70.6297C60.4977 74.0985 63.4626 76.8844 67.0446 76.8844C70.6274 76.8844 73.5907 74.0977 73.5907 70.6297C73.5907 67.1625 70.6282 64.3813 67.0446 64.3813ZM67.0446 65.9977C69.7985 65.9977 71.9743 68.0813 71.9743 70.6305C71.9743 73.1774 69.7985 75.2688 67.0446 75.2688C64.2915 75.2688 62.1149 73.1774 62.1149 70.6297C62.1149 68.0828 64.2915 65.9977 67.0446 65.9977Z" fill="#60605B"/>
<path d="M12.4702 66.6539V68.8102H50.3312C50.4249 68.1094 50.5288 67.3914 50.6483 66.6539H12.4702ZM31.653 74.7344V76.8844H87.6405V74.7344H83.3085L83.3163 74.7938H49.5726L49.5804 74.7344H31.653Z" fill="#3C6EB4"/>
<path d="M47.7468 11.8961H47.7452C43.853 11.8961 40.0655 12.3211 37.6241 13.2891C31.153 15.6664 26.2741 22.0586 24.8233 29.7547C23.5327 35.8602 23.1905 41.0235 22.5038 45.6985C22.2108 47.6969 21.8491 49.6008 21.3351 51.4617C18.7093 53.536 16.8233 56.7477 16.1335 60.4071C15.6522 62.6828 15.3858 64.7352 15.1538 66.6539H16.7772C17.0022 64.8024 17.2647 62.8571 17.7171 60.7242L17.7233 60.7164V60.7024C18.5749 56.1844 21.4499 52.5055 25.0733 51.1828L25.0874 51.175L25.0937 51.1688C26.3226 50.6813 28.6929 50.3766 31.0843 50.3766C33.4726 50.3766 35.9366 50.6742 37.3999 51.1821C41.0202 52.5071 43.8929 56.1867 44.7437 60.7024V60.7164L44.7499 60.7242C45.203 62.8571 45.4647 64.8032 45.6897 66.6539H47.314C47.0819 64.7336 46.8163 62.6774 46.3343 60.3992C45.389 55.3946 42.2077 51.2164 37.9476 49.661H37.9413L37.9351 49.6531C36.1444 49.0313 33.5991 48.7625 31.0835 48.761C28.5726 48.761 26.1397 49.0211 24.5062 49.6672C24.1015 49.8157 23.7093 49.9953 23.3249 50.1891C23.6411 48.7819 23.9017 47.3629 24.1062 45.9352C24.8054 41.168 25.1335 36.0656 26.3983 30.086L26.4062 30.0781V30.0656C27.7624 22.8469 32.3483 16.936 38.1921 14.7969L38.1999 14.7906H38.2116C40.2468 13.9813 43.9733 13.5125 47.7468 13.5133C51.5147 13.5133 55.3749 13.9688 57.7546 14.7969C63.5983 16.9352 68.1843 22.8461 69.539 30.0649L69.5468 30.0805V30.086C70.8108 36.0656 71.1468 41.168 71.846 45.9352C72.1608 48.0821 72.5694 50.1617 73.1585 52.2125C71.2882 51.6469 68.7804 51.3922 66.2874 51.3922C63.6077 51.3922 61.0163 51.6735 59.2827 52.3594C54.7562 54.0156 51.3726 58.4532 50.364 63.7805C49.4765 67.9664 49.2405 71.4985 48.7733 74.6735L50.3757 74.9102C50.8562 71.6422 51.0772 68.1711 51.9382 64.111L51.946 64.1032V64.0977C52.8585 59.25 55.9483 55.2883 59.8444 53.8664H59.8499L59.864 53.8586C61.1921 53.3321 63.728 53.0071 66.2882 53.0071C68.8468 53.0071 71.4819 53.325 73.0569 53.8727H73.0647C76.953 55.2992 80.0351 59.2555 80.9476 64.0977V64.111C81.8077 68.1703 82.0351 71.6422 82.5155 74.9094L84.1194 74.6735C83.653 71.4977 83.4163 67.9657 82.5296 63.7797C81.6343 59.0477 78.864 55.0196 75.0843 53.0164C74.2999 50.6625 73.8186 48.2563 73.4429 45.6985C72.7577 41.0266 72.4179 35.8672 71.1296 29.7688C69.6811 22.0594 64.7991 15.6485 58.3155 13.275H58.3015C55.5952 12.3297 51.6452 11.8969 47.7468 11.8961ZM35.5827 21.6328C34.7528 21.6283 33.933 21.8151 33.187 22.1788C32.441 22.5424 31.7888 23.0731 31.2812 23.7297L30.7866 24.3656L32.0726 25.3531L32.5655 24.7102C32.9029 24.2816 33.3276 23.9298 33.8115 23.678C34.2953 23.4263 34.8272 23.2804 35.3718 23.25C36.3874 23.2071 37.4421 23.6156 38.164 24.3321L38.739 24.9071L39.8819 23.7571L39.3069 23.1891C38.3128 22.208 36.977 21.6507 35.5804 21.6344L35.5827 21.6328ZM61.6546 21.6328C60.2578 21.6495 58.9219 22.2074 57.928 23.1891L57.353 23.7571L58.4897 24.9071L59.0655 24.3321C59.4342 23.9731 59.8715 23.6923 60.3513 23.5064C60.8311 23.3205 61.3434 23.2333 61.8577 23.25C62.9319 23.2969 64.014 23.8571 64.6702 24.711L65.1647 25.3531L66.4429 24.3656L65.9483 23.7297C65.4422 23.0734 64.7914 22.5428 64.0467 22.1791C63.302 21.8154 62.4834 21.6285 61.6546 21.6328ZM35.5413 28.7539C34.4705 28.7544 33.4436 29.1912 32.6865 29.9684C31.9294 30.7455 31.504 31.7995 31.5038 32.8985C31.5038 33.9976 31.9291 35.0517 32.6863 35.8291C33.4434 36.6064 34.4704 37.0433 35.5413 37.0438C36.0721 37.0443 36.5977 36.9375 37.0882 36.7294C37.5787 36.5213 38.0244 36.216 38.3999 35.8311C38.7754 35.4461 39.0732 34.9889 39.2764 34.4857C39.4797 33.9825 39.5843 33.4432 39.5843 32.8985C39.5842 32.3538 39.4795 31.8145 39.2762 31.3114C39.073 30.8083 38.7751 30.3513 38.3996 29.9664C38.0241 29.5815 37.5785 29.2763 37.088 29.0682C36.5976 28.8602 36.072 28.7534 35.5413 28.7539ZM61.6882 28.7539C60.6175 28.7546 59.5909 29.1915 58.8339 29.9686C58.077 30.7458 57.6517 31.7996 57.6515 32.8985C57.6515 33.9974 58.0767 35.0515 58.8336 35.8288C59.5906 36.6061 60.6174 37.0431 61.6882 37.0438C62.7591 37.0433 63.7861 36.6064 64.5432 35.8291C65.3004 35.0517 65.7257 33.9976 65.7257 32.8985C65.7255 31.7996 65.3002 30.7458 64.5432 29.9686C63.7863 29.1915 62.7589 28.7546 61.6882 28.7539ZM48.8483 34.7383C48.2561 34.7383 47.771 34.9203 47.3679 35.0563C46.964 35.193 46.6413 35.286 46.3929 35.286C45.9499 35.286 45.5147 35.5289 45.278 35.8141C45.0421 36.0985 44.9304 36.3922 44.8444 36.6719C44.6726 37.2289 44.589 37.7953 44.5132 37.9922C44.3397 38.4406 44.5054 38.7977 44.6429 39.0321C44.7796 39.2664 44.9468 39.4508 45.1351 39.6414C45.5132 40.0211 45.9913 40.4016 46.4741 40.7563C46.9687 41.1188 47.4647 41.4485 47.8335 41.6891L47.814 42.0141C47.6319 42.1625 47.189 42.5555 46.4546 42.8039C46.0202 42.9508 45.5827 43.0031 45.203 42.9063C44.8804 42.8235 44.5593 42.5391 44.2296 42.1086C44.2507 41.9383 44.2585 41.8688 44.2968 41.5883C44.3647 41.0977 44.4632 40.5047 44.5077 40.3289L42.9382 39.9367C42.8444 40.3117 42.7647 40.8586 42.6944 41.3657C42.6241 41.8719 42.5726 42.3055 42.5726 42.3055L42.539 42.5946L42.6944 42.8375C43.264 43.7328 44.0233 44.2758 44.8046 44.475C45.5858 44.675 46.3437 44.5539 46.9765 44.3406C47.7968 44.0617 48.4655 43.6141 48.8343 43.3328C49.2038 43.6141 49.8686 44.0633 50.6866 44.3406C51.3194 44.5547 52.0694 44.675 52.8507 44.475C53.6319 44.275 54.3921 43.7328 54.9608 42.8375L55.1171 42.5953L55.0827 42.3055C55.0827 42.3055 55.0311 41.8719 54.9608 41.3657C54.8905 40.8578 54.8093 40.3117 54.7171 39.9367L53.1483 40.3289C53.1921 40.5047 53.2905 41.0977 53.3593 41.5883C53.3968 41.8649 53.4062 41.9321 53.4257 42.1024C53.0944 42.5367 52.7772 42.8235 52.4522 42.9071C52.0726 43.0031 51.6358 42.9508 51.2015 42.8039C50.4671 42.5555 50.0233 42.1625 49.8421 42.0141L49.828 41.7102C50.2022 41.468 50.7093 41.1321 51.221 40.7571C51.7038 40.4016 52.1819 40.0203 52.5608 39.6399C52.7483 39.45 52.9171 39.2656 53.053 39.0321C53.1913 38.7977 53.3554 38.4406 53.1819 37.9914C53.1061 37.7961 53.0163 37.2289 52.8444 36.6711C52.7585 36.393 52.6554 36.0977 52.4187 35.8125C52.1819 35.5281 51.7468 35.286 51.303 35.286C51.0554 35.286 50.7327 35.1922 50.3296 35.0563C49.9257 34.9203 49.4413 34.7383 48.8483 34.7383ZM48.8483 36.3547C49.0866 36.3547 49.403 36.4469 49.8093 36.5836C50.1827 36.7102 50.6522 36.8492 51.1874 36.875C51.2054 36.9024 51.2538 36.9922 51.303 37.1524C51.3897 37.4336 51.478 37.8633 51.5999 38.2813C51.5608 38.3344 51.514 38.4008 51.4116 38.5039C51.1444 38.7727 50.7085 39.1219 50.2608 39.45C49.5733 39.9555 49.1437 40.2188 48.8483 40.4039C48.5554 40.2196 48.1171 39.9586 47.4272 39.4508C46.9796 39.1227 46.5522 38.7727 46.2851 38.5039C46.1819 38.4008 46.1366 38.3344 46.0976 38.2813C46.2179 37.8633 46.3069 37.4344 46.3929 37.1524C46.42 37.0554 46.4591 36.9623 46.5093 36.875C47.0437 36.85 47.5069 36.7102 47.8811 36.5836C48.2858 36.4469 48.6108 36.3547 48.8483 36.3547ZM23.1124 54.9758C22.0187 55.0227 20.9952 55.5571 20.3265 56.4242L19.8343 57.0664L21.1108 58.0539L21.6054 57.4102C21.7971 57.1706 22.0369 56.974 22.3095 56.8331C22.582 56.6922 22.8811 56.6101 23.1874 56.5922C23.4762 56.5841 23.7638 56.6337 24.0332 56.7382C24.3026 56.8427 24.5484 57 24.7562 57.2008L25.3312 57.7688L26.4663 56.6196L25.8913 56.0516C25.5266 55.6914 25.0917 55.41 24.6137 55.2249C24.1356 55.0398 23.6246 54.9551 23.1124 54.9758ZM40.1733 54.9758C39.6619 54.9549 39.1517 55.0397 38.6745 55.2248C38.1974 55.4099 37.7635 55.6913 37.3999 56.0516L36.8257 56.6196L37.9608 57.768L38.5366 57.2008C38.7442 57 38.9899 56.8426 39.2591 56.738C39.5284 56.6333 39.8158 56.5835 40.1046 56.5914C40.4111 56.6092 40.7104 56.6913 40.9831 56.8323C41.2558 56.9734 41.4958 57.1703 41.6874 57.4102L42.1741 58.0539L43.4585 57.0664L42.9647 56.4242C42.6324 55.9947 42.2106 55.6427 41.7286 55.3926C41.2465 55.1424 40.7159 55.0002 40.1733 54.9758ZM75.8015 58.0321H75.7999C74.7788 58.0441 73.8021 58.4519 73.0757 59.1696L72.5007 59.7367L73.6374 60.8852L74.2108 60.318C74.4386 60.0984 74.708 59.9267 75.0032 59.8131C75.2984 59.6994 75.6134 59.6461 75.9296 59.6563C76.5858 59.6836 77.2585 60.0289 77.6593 60.5485L78.1538 61.1906L79.4327 60.2039L78.9382 59.5617C78.5892 59.1094 78.1457 58.7387 77.6386 58.4755C77.1315 58.2124 76.573 58.0632 76.0022 58.0383C75.9358 58.036 75.8694 58.0321 75.8015 58.0321ZM57.9702 58.0321C57.9022 58.0321 57.8351 58.0352 57.7671 58.0391C57.1955 58.0639 56.6362 58.213 56.1281 58.4759C55.62 58.7389 55.1752 59.1094 54.8249 59.5617L54.3327 60.2039L55.6171 61.1914L56.1093 60.5485C56.3175 60.2864 56.5789 60.0714 56.8762 59.9177C57.1736 59.7639 57.5001 59.6748 57.8343 59.6563C58.1513 59.6462 58.4671 59.6995 58.7631 59.8132C59.0592 59.9268 59.3296 60.0984 59.5585 60.318L60.1335 60.886L61.2702 59.7375L60.6952 59.1696C59.9685 58.4519 58.9915 58.0436 57.9702 58.0321ZM23.2812 59.8117C22.5963 59.812 21.9396 60.0905 21.4553 60.5863C20.971 61.082 20.6987 61.7543 20.6983 62.4555C20.6976 62.8033 20.7639 63.1478 20.8934 63.4693C21.0229 63.7908 21.213 64.0831 21.4529 64.3293C21.6928 64.5755 21.9777 64.7708 22.2915 64.9042C22.6052 65.0375 22.9415 65.1062 23.2812 65.1063C23.6208 65.1062 23.9571 65.0375 24.2708 64.9042C24.5846 64.7708 24.8695 64.5755 25.1094 64.3293C25.3493 64.0831 25.5394 63.7908 25.6689 63.4693C25.7984 63.1478 25.8647 62.8033 25.864 62.4555C25.8636 61.7543 25.5913 61.082 25.107 60.5863C24.6227 60.0905 23.966 59.812 23.2812 59.8117ZM40.0093 59.8117C39.6696 59.8109 39.3331 59.8787 39.019 60.0111C38.7049 60.1436 38.4194 60.3382 38.1789 60.5837C37.9383 60.8293 37.7474 61.121 37.6171 61.4422C37.4868 61.7634 37.4196 62.1077 37.4194 62.4555C37.4187 62.8039 37.4852 63.149 37.6152 63.471C37.7451 63.793 37.9358 64.0855 38.1765 64.3318C38.4171 64.5781 38.7029 64.7733 39.0174 64.9062C39.332 65.0391 39.669 65.1071 40.0093 65.1063C40.3489 65.1062 40.6853 65.0375 40.999 64.9042C41.3127 64.7708 41.5976 64.5755 41.8375 64.3293C42.0774 64.0831 42.2676 63.7908 42.397 63.4693C42.5265 63.1478 42.5928 62.8033 42.5921 62.4555C42.5917 61.7543 42.3194 61.082 41.8351 60.5863C41.3508 60.0905 40.6941 59.812 40.0093 59.8117ZM57.9413 63.1524C57.2099 63.1536 56.5088 63.4518 55.9918 63.9816C55.4748 64.5113 55.1841 65.2293 55.1835 65.9782C55.1839 66.7271 55.4745 67.4453 55.9915 67.9752C56.5085 68.5051 57.2097 68.8034 57.9413 68.8047C58.3042 68.8051 58.6637 68.7323 58.9991 68.5905C59.3345 68.4487 59.6393 68.2405 59.8962 67.9781C60.153 67.7156 60.3568 67.4038 60.4959 67.0607C60.635 66.7175 60.7067 66.3497 60.7069 65.9782C60.7066 65.6067 60.6349 65.2389 60.4957 64.8959C60.3565 64.5528 60.1527 64.2412 59.8959 63.9787C59.6391 63.7163 59.3343 63.5083 58.9989 63.3665C58.6635 63.2247 58.3042 63.152 57.9413 63.1524ZM75.8265 63.1524C75.4636 63.152 75.1042 63.2247 74.7689 63.3665C74.4335 63.5083 74.1287 63.7163 73.8719 63.9787C73.615 64.2412 73.4112 64.5528 73.2721 64.8959C73.1329 65.2389 73.0611 65.6067 73.0608 65.9782C73.061 66.3497 73.1327 66.7175 73.2719 67.0607C73.411 67.4038 73.6148 67.7156 73.8716 67.9781C74.1284 68.2405 74.4333 68.4487 74.7687 68.5905C75.1041 68.7323 75.4635 68.8051 75.8265 68.8047C76.5583 68.8039 77.2599 68.5057 77.7773 67.9758C78.2946 67.4459 78.5854 66.7274 78.5858 65.9782C78.5852 65.229 78.2943 64.5108 77.777 63.981C77.2597 63.4512 76.5582 63.1532 75.8265 63.1524ZM31.7944 63.3414C31.3522 63.3414 31.0101 63.4719 30.7522 63.5586C30.4944 63.6446 30.3218 63.6867 30.2257 63.6867C29.8585 63.6867 29.478 63.9024 29.2858 64.1336C29.0937 64.3641 29.0147 64.5867 28.9546 64.7821C28.8327 65.175 28.7757 65.536 28.7515 65.6C28.5905 66.0164 28.7437 66.3344 28.853 66.5203C28.8827 66.5719 28.9155 66.6102 28.9468 66.6547H31.4155C31.2939 66.5744 31.1743 66.491 31.0569 66.4047C30.7772 66.1985 30.5046 65.9821 30.3538 65.8305V65.8227C30.403 65.6196 30.4608 65.3758 30.496 65.261C30.4999 65.2485 30.4991 65.2594 30.5038 65.2492C30.7897 65.2071 31.0765 65.15 31.2663 65.0852C31.5257 64.9985 31.7054 64.9578 31.7944 64.9578C31.8827 64.9578 32.0554 64.9985 32.3147 65.086C32.5046 65.15 32.7937 65.2071 33.0788 65.2492C33.0827 65.2594 33.0812 65.2492 33.0851 65.261C33.121 65.3758 33.1851 65.618 33.2335 65.8235L33.2272 65.8305C33.0765 65.9821 32.8054 66.1985 32.5249 66.4039C32.4092 66.4893 32.292 66.5727 32.1733 66.6539H34.6421C34.6733 66.611 34.7062 66.5711 34.7351 66.5203C34.8444 66.3344 34.9983 66.0164 34.8366 65.6C34.8132 65.5367 34.7483 65.175 34.6257 64.7821C34.5631 64.5448 34.4504 64.3237 34.2952 64.1336C34.103 63.9024 33.7304 63.6867 33.3632 63.6867C33.2671 63.6867 33.0929 63.6453 32.8351 63.5586C32.5772 63.4719 32.2366 63.3414 31.7944 63.3414ZM67.0437 66.9797C66.5827 66.9797 66.2233 67.1172 65.9476 67.2102C65.6718 67.3032 65.4812 67.3508 65.3663 67.3508C64.9897 67.3508 64.6038 67.5657 64.4054 67.8039C64.2085 68.0407 64.1249 68.2742 64.0616 68.4805C63.9335 68.893 63.8694 69.2797 63.839 69.3594C63.6757 69.7813 63.8343 70.1016 63.946 70.2922C64.0585 70.4844 64.1882 70.6203 64.3257 70.7594C64.6015 71.0352 64.9358 71.2969 65.2718 71.543C65.5491 71.7461 65.8194 71.9305 66.0499 72.0852C65.8976 72.2063 65.6952 72.3719 65.3249 72.4969C65.0593 72.5867 64.8124 72.6078 64.6155 72.5578C64.4718 72.5211 64.3101 72.3539 64.1491 72.1735C64.1616 72.0742 64.1647 72.068 64.1827 71.943C64.2296 71.611 64.296 71.1992 64.3179 71.1117L62.7499 70.7196C62.678 71.0071 62.6288 71.3711 62.5804 71.7188C62.5319 72.068 62.4991 72.3688 62.4991 72.3688L62.4655 72.6524L62.6218 72.8969C63.0382 73.5516 63.6194 73.9742 64.2155 74.1266C64.8132 74.2789 65.3765 74.1821 65.8397 74.0258C66.2634 73.8774 66.664 73.6699 67.0296 73.4094C67.3093 73.6063 67.7226 73.8571 68.2202 74.0266C68.6835 74.1828 69.2452 74.2789 69.8421 74.1266C70.4397 73.9742 71.021 73.5516 71.4382 72.8969L71.5944 72.6524L71.5601 72.3688C71.5601 72.3688 71.5202 72.0688 71.4718 71.7203C71.4241 71.3719 71.3757 71.0071 71.3038 70.7196L69.7351 71.1117C69.7569 71.1992 69.8312 71.6117 69.8772 71.943C69.8929 72.068 69.8905 72.0742 69.903 72.1735C69.7429 72.3532 69.5866 72.5211 69.4436 72.5578C69.2468 72.6078 68.9983 72.5867 68.7327 72.4969C68.3733 72.375 68.1757 72.2125 68.0233 72.0907C68.2577 71.936 68.5312 71.75 68.8147 71.5438C69.1507 71.2969 69.4851 71.036 69.7608 70.7594C69.9074 70.6213 70.0348 70.4641 70.1397 70.2922C70.2522 70.1008 70.4038 69.7805 70.2413 69.3594C70.21 69.2797 70.1452 68.893 70.0171 68.4805C69.9546 68.2742 69.8765 68.0407 69.6804 67.8032C69.4819 67.5657 69.0968 67.35 68.7202 67.35C68.6062 67.35 68.4155 67.3032 68.139 67.2094C67.8632 67.1157 67.5046 66.9797 67.0437 66.9797ZM67.0437 68.5953C67.1507 68.5953 67.3413 68.6438 67.6186 68.7375C67.8947 68.8208 68.1776 68.8794 68.464 68.9125C68.4741 68.9344 68.464 68.9203 68.4757 68.9594C68.5179 69.0961 68.5858 69.3586 68.6452 69.5961L68.6179 69.6235C68.3799 69.8474 68.1269 70.0549 67.8608 70.2446C67.4663 70.5336 67.2796 70.643 67.0437 70.7922C66.8093 70.6438 66.6218 70.5352 66.2257 70.2453C65.959 70.0555 65.7056 69.8477 65.4671 69.6235C65.4499 69.6055 65.4561 69.6047 65.4413 69.5883C65.4991 69.3555 65.5616 69.0946 65.603 68.9602C65.6155 68.9188 65.6124 68.9344 65.6226 68.9133C65.907 68.8803 66.1878 68.8214 66.4616 68.7375C66.739 68.6438 66.9358 68.5953 67.0429 68.5953H67.0437Z" fill="black"/>
<path d="M35.5398 27.9492C34.9005 27.9495 34.2678 28.0787 33.6795 28.3292C33.0913 28.5797 32.5597 28.9463 32.1164 29.407C31.56 29.9769 31.1487 30.6723 30.9172 31.4344C30.7474 31.9901 30.6761 32.5713 30.7063 33.1516C30.7441 33.9122 30.9553 34.6542 31.3237 35.3208C31.6922 35.9874 32.2081 36.5609 32.832 36.9977C33.1562 37.2219 33.5064 37.4058 33.875 37.5453C35.026 37.9799 36.301 37.9491 37.4297 37.4594C37.8631 37.2716 38.2663 37.0205 38.6258 36.7141C39.0479 36.3582 39.4071 35.9338 39.6883 35.4586C40.2803 34.4636 40.5084 33.2938 40.3336 32.1492C40.2367 31.5099 40.0173 30.8953 39.6875 30.3391C39.3241 29.7291 38.8348 29.2037 38.2523 28.7977C37.9279 28.5736 37.5774 28.39 37.2086 28.2508C36.6756 28.0506 36.1108 27.9485 35.5414 27.9492H35.5398ZM61.6883 27.9492C61.1194 27.9504 60.5553 28.0533 60.0227 28.2531C59.5801 28.4192 59.1649 28.6503 58.7906 28.9391C58.3534 29.274 57.9757 29.6802 57.6734 30.1406C56.9436 31.2449 56.6818 32.5935 56.9453 33.8906C57.1353 34.8334 57.5932 35.7014 58.2641 36.3906C58.5933 36.7277 58.9689 37.0161 59.3797 37.2469C59.7964 37.4788 60.2453 37.6473 60.7117 37.7469C61.1955 37.8495 61.6926 37.8751 62.1844 37.8227C63.139 37.723 64.0409 37.3356 64.7703 36.7117C65.2524 36.3039 65.6518 35.8075 65.9469 35.2492C66.4123 34.3748 66.6068 33.3815 66.5055 32.3961C66.4323 31.6703 66.202 30.9692 65.8305 30.3414C65.4268 29.6637 64.8683 29.0913 64.2008 28.6711C63.7973 28.4201 63.359 28.23 62.9 28.107C62.5049 28.002 62.0971 27.949 61.6883 27.9492ZM35.5398 29.5586H35.5414C35.7062 29.5591 35.8707 29.5716 36.0336 29.5961C36.402 29.653 36.7574 29.7752 37.0828 29.957C37.3585 30.1099 37.6102 30.3026 37.8297 30.5289C38.1279 30.8343 38.364 31.1946 38.525 31.5898C38.6735 31.9509 38.7584 32.335 38.7758 32.725C38.7944 33.1219 38.7464 33.519 38.6336 33.9C38.5094 34.312 38.3076 34.6965 38.0391 35.0328C37.7748 35.3609 37.4502 35.6354 37.0828 35.8414C36.4638 36.1842 35.7482 36.3106 35.0492 36.2008C34.2583 36.0777 33.5432 35.6599 33.0477 35.0313C32.7782 34.6957 32.5766 34.3109 32.4539 33.8984C32.3562 33.5741 32.3072 33.2371 32.3086 32.8984C32.3093 32.5598 32.3585 32.2231 32.4547 31.8984C32.5789 31.4868 32.7804 31.1026 33.0484 30.7664C33.3117 30.4388 33.6352 30.1646 34.0016 29.9586C34.4231 29.7242 34.8926 29.589 35.3742 29.5633C35.4289 29.5602 35.4844 29.5586 35.5398 29.5586ZM61.6883 29.5586C62.0143 29.559 62.3384 29.6093 62.6492 29.7078C63.0508 29.8356 63.4227 30.0425 63.743 30.3164C64.0666 30.59 64.3341 30.9237 64.5305 31.2992C64.7364 31.6891 64.8635 32.1157 64.9047 32.5547C64.9699 33.2255 64.8396 33.9008 64.5297 34.4992C64.332 34.8737 64.0651 35.2072 63.743 35.482C63.5029 35.6855 63.2344 35.8529 62.9461 35.9789C62.5495 36.1515 62.1216 36.2405 61.6891 36.2405C61.2565 36.2405 60.8286 36.1515 60.432 35.9789C60.0458 35.812 59.6967 35.5701 59.4047 35.2672C59.1071 34.9617 58.8715 34.6014 58.7109 34.2063C58.5628 33.8454 58.4782 33.4616 58.4609 33.0719C58.4471 32.7866 58.4679 32.5006 58.5227 32.2203C58.6073 31.794 58.7725 31.3878 59.0094 31.0234C59.2409 30.6712 59.5373 30.3663 59.8828 30.125C60.1868 29.9147 60.5248 29.7585 60.882 29.6633C61.1451 29.5937 61.4161 29.5585 61.6883 29.5586ZM23.1937 59.0055C23.1646 59.0046 23.1354 59.0048 23.1063 59.0063C21.3133 59.1 19.8945 60.6266 19.8945 62.4547C19.8945 64.3422 21.4078 65.9102 23.282 65.9102C25.1563 65.9102 26.6758 64.3422 26.6758 62.4547C26.6758 60.5672 25.1563 59.0063 23.282 59.0063L23.1937 59.0055ZM39.9227 59.0055C39.8932 59.0046 39.8638 59.0048 39.8344 59.0063C38.0414 59.1 36.6156 60.6266 36.6156 62.4547C36.6156 64.3422 38.1359 65.9102 40.0102 65.9102C41.8852 65.9102 43.3977 64.3422 43.3977 62.4547C43.3977 60.5672 41.8844 59.0063 40.0102 59.0063L39.9227 59.0055ZM23.282 60.6227C24.2617 60.6227 25.0594 61.4203 25.0594 62.4547C25.0594 63.4891 24.2617 64.2938 23.282 64.2938C22.3023 64.2938 21.5094 63.4891 21.5094 62.4547C21.5094 61.4203 22.3023 60.6227 23.282 60.6227ZM40.0102 60.6227C40.9898 60.6227 41.782 61.4203 41.782 62.4547C41.782 63.4891 40.9898 64.2938 40.0102 64.2938C39.0305 64.2938 38.232 63.4891 38.232 62.4547C38.232 61.4203 39.0305 60.6227 40.0102 60.6227ZM57.9422 62.3398C55.9695 62.3398 54.3719 63.9891 54.3719 65.9773C54.3719 67.9664 55.9695 69.6156 57.9422 69.6156C59.9156 69.6156 61.5125 67.9672 61.5125 65.9773C61.5125 63.9891 59.9156 62.3398 57.9422 62.3398ZM75.8273 62.3398C73.8547 62.3398 72.257 63.9891 72.257 65.9773C72.257 67.9664 73.8547 69.6156 75.8273 69.6156C77.8008 69.6156 79.3977 67.9672 79.3977 65.9773C79.3977 63.9891 77.8008 62.3398 75.8273 62.3398ZM57.8922 63.9555L57.943 63.9562C59.0211 63.9562 59.8961 64.8422 59.8961 65.9773C59.8961 67.1133 59.0211 67.9992 57.943 67.9992C56.8648 67.9992 55.9883 67.1133 55.9883 65.9773C55.9883 64.8773 56.8086 64.0086 57.8414 63.9562C57.8583 63.9555 57.8753 63.9547 57.8922 63.9555ZM75.7766 63.9555L75.8281 63.9562C76.9062 63.9562 77.7812 64.8422 77.7812 65.9773C77.7812 67.1133 76.9062 67.9992 75.8281 67.9992C74.75 67.9992 73.8734 67.1133 73.8734 65.9773C73.8734 64.8773 74.6937 64.0086 75.7266 63.9562C75.7432 63.9555 75.7599 63.9548 75.7766 63.9555Z" fill="#892CA0"/>
<path d="M34.1953 29.6664C33.6687 29.666 33.1634 29.883 32.7905 30.2697C32.4177 30.6565 32.2078 31.1813 32.207 31.7289C32.2064 32.0007 32.2574 32.2699 32.3571 32.5212C32.4568 32.7724 32.6032 33.0008 32.7879 33.1931C32.9726 33.3854 33.192 33.538 33.4335 33.642C33.675 33.746 33.9339 33.7994 34.1953 33.7992C34.4567 33.7994 34.7156 33.746 34.9571 33.642C35.1986 33.538 35.418 33.3854 35.6027 33.1931C35.7875 33.0008 35.9338 32.7724 36.0335 32.5212C36.1332 32.2699 36.1842 32.0007 36.1836 31.7289C36.1828 31.1813 35.9729 30.6565 35.6001 30.2697C35.2273 29.883 34.722 29.666 34.1953 29.6664ZM60.3305 29.6664C59.8038 29.666 59.2985 29.883 58.9257 30.2697C58.5529 30.6565 58.343 31.1813 58.3422 31.7289C58.3416 32.0007 58.3926 32.2699 58.4923 32.5212C58.5919 32.7724 58.7383 33.0008 58.923 33.1931C59.1077 33.3854 59.3271 33.538 59.5687 33.642C59.8102 33.746 60.0691 33.7994 60.3305 33.7992C60.5917 33.7992 60.8505 33.7456 61.0918 33.6415C61.3331 33.5374 61.5523 33.3848 61.7369 33.1925C61.9214 33.0002 62.0677 32.772 62.1673 32.5208C62.2668 32.2696 62.3178 32.0005 62.3172 31.7289C62.3164 31.1816 62.1067 30.657 61.7342 30.2703C61.3617 29.8836 60.8569 29.6664 60.3305 29.6664ZM22.4219 60.3929C22.0851 60.3932 21.7622 60.5321 21.5241 60.7793C21.2861 61.0264 21.1523 61.3615 21.1523 61.7109C21.1522 61.8841 21.1851 62.0557 21.2489 62.2157C21.3127 62.3758 21.4064 62.5212 21.5244 62.6436C21.6425 62.7661 21.7826 62.8633 21.9369 62.9295C22.0912 62.9957 22.2565 63.0298 22.4234 63.0297C22.5904 63.0298 22.7557 62.9957 22.91 62.9295C23.0642 62.8633 23.2044 62.7661 23.3225 62.6436C23.4405 62.5212 23.5341 62.3758 23.598 62.2157C23.6618 62.0557 23.6946 61.8841 23.6945 61.7109C23.6945 61.5378 23.6616 61.3663 23.5978 61.2064C23.5339 61.0464 23.4402 60.9011 23.3222 60.7787C23.2041 60.6563 23.064 60.5592 22.9098 60.493C22.7556 60.4268 22.5903 60.3928 22.4234 60.3929H22.4219ZM39.3125 60.582C39.1456 60.582 38.9804 60.6161 38.8262 60.6824C38.672 60.7487 38.532 60.8458 38.414 60.9683C38.296 61.0908 38.2025 61.2362 38.1387 61.3962C38.0749 61.5561 38.0421 61.7276 38.0422 61.9008C38.0422 62.0739 38.0751 62.2454 38.139 62.4053C38.2028 62.5653 38.2965 62.7106 38.4145 62.833C38.5326 62.9554 38.6727 63.0524 38.8269 63.1186C38.9811 63.1848 39.1464 63.2188 39.3133 63.2187C39.4803 63.219 39.6457 63.1852 39.8001 63.1191C39.9545 63.053 40.0948 62.956 40.213 62.8336C40.3312 62.7111 40.425 62.5657 40.489 62.4057C40.553 62.2456 40.5859 62.074 40.5859 61.9008C40.586 61.7273 40.5531 61.5556 40.4892 61.3954C40.4252 61.2352 40.3313 61.0897 40.213 60.9672C40.0947 60.8446 39.9543 60.7476 39.7998 60.6815C39.6452 60.6154 39.4796 60.5816 39.3125 60.582ZM57.0234 63.7742C56.6636 63.774 56.3184 63.9218 56.0636 64.1853C55.8087 64.4488 55.6651 64.8064 55.6641 65.1797C55.6637 65.3651 55.6985 65.5487 55.7667 65.7202C55.8348 65.8916 55.9349 66.0473 56.0612 66.1785C56.1875 66.3098 56.3375 66.4138 56.5026 66.4848C56.6677 66.5558 56.8447 66.5923 57.0234 66.5922C57.2022 66.5923 57.3792 66.5558 57.5443 66.4848C57.7094 66.4138 57.8594 66.3098 57.9857 66.1785C58.112 66.0473 58.212 65.8916 58.2802 65.7202C58.3483 65.5487 58.3832 65.3651 58.3828 65.1797C58.3818 64.8064 58.2381 64.4488 57.9833 64.1853C57.7284 63.9218 57.3832 63.774 57.0234 63.7742ZM75.1852 63.9554C75.0063 63.9553 74.8292 63.9919 74.664 64.0629C74.4987 64.134 74.3487 64.2382 74.2224 64.3696C74.0961 64.501 73.996 64.6569 73.928 64.8285C73.8599 65.0001 73.8252 65.184 73.8258 65.3695C73.8266 65.7429 73.9702 66.1007 74.225 66.3644C74.4799 66.628 74.8252 66.776 75.1852 66.7758C75.5451 66.776 75.8904 66.628 76.1453 66.3644C76.4001 66.1007 76.5437 65.7429 76.5445 65.3695C76.5451 65.184 76.5104 65.0001 76.4423 64.8285C76.3743 64.6569 76.2742 64.501 76.1479 64.3696C76.0216 64.2382 75.8716 64.134 75.7064 64.0629C75.5411 63.9919 75.364 63.9553 75.1852 63.9554Z" fill="white"/>
</svg>
