<svg width="100" height="100" viewBox="0 0 100 100" fill="none" xmlns="http://www.w3.org/2000/svg">
<path d="M91.8396 62.0625C91.4583 60.3355 89.8916 58.3209 86.7312 58.3209C86.0854 58.3209 85.3791 58.4021 84.575 58.5688C83.1 58.873 81.8437 59.0209 80.7375 59.0709C89.3479 44.4042 94.9375 24.0313 89.402 16.9584C82.1083 7.63963 72.2896 6.24797 67.0875 6.24797L66.5979 6.25005C64.6625 6.2813 62.6541 6.5188 60.6333 6.9563L53.1687 8.5688C52.1521 8.44172 51.1166 8.35213 50.0375 8.33338H49.975H49.9416L49.625 8.3313C46.3062 8.3313 43.2791 9.03547 40.5812 10.3584L37.975 9.3313C34.3916 7.9188 29 6.23755 23.6666 6.23755C23.3666 6.23755 23.0687 6.2438 22.7687 6.25422C17.5146 6.4438 13.0021 8.43755 9.71664 12.0188C5.61664 16.4896 3.74997 23.0292 4.17289 31.4584C4.19372 31.8938 9.29372 75 23.75 75H23.8021L23.9354 74.998C25.8125 74.9521 27.6021 74.198 29.275 72.7542C30.5521 73.7125 32.2041 74.2792 33.7437 74.5042C34.7604 74.7438 36.5896 75.0834 38.7812 75.0834C41.4562 75.0834 43.8687 74.5355 45.9479 73.5459C45.9458 75.3792 45.9354 77.7001 45.9146 80.6667L45.9125 80.823L45.9229 80.9792C46.125 83.9355 46.6354 86.6 47.4041 88.6896C49.5937 94.6459 53.375 97.9271 58.0521 97.9271C58.2458 97.9271 58.4437 97.9209 58.6437 97.9084C62.4896 97.6709 66.3875 95.5105 69.0687 92.1334C71.9708 88.4771 72.6416 84.6188 72.9 81.6626L72.9166 81.4813V81.298V72.8L73.1312 72.8209L74.0396 72.9L74.1271 72.9084L74.2146 72.9126C74.4729 72.925 74.7396 72.9292 75.0083 72.9292C78.1479 72.9292 82.0125 72.1146 84.625 70.9C87.1229 69.7417 92.8312 66.5584 91.8396 62.0625Z" fill="white"/>
<path d="M68.7501 70.8333C68.7501 70.4063 68.7751 70.05 68.7876 69.6563C68.7667 69.1333 68.7501 68.75 68.7501 68.75C68.7501 68.75 68.7751 68.7313 68.8167 68.7042C69.1272 63.1354 70.6626 60.9896 72.3063 59.7667C72.0771 59.4479 71.8126 59.1042 71.5647 58.7771C70.8709 57.8667 70.0063 56.7375 69.0813 55.2896L68.9105 54.9604C68.7709 54.6188 68.4334 54.0292 68.0042 53.2542C65.5396 48.7958 60.4105 39.5208 63.9209 33.6625C65.4584 31.0958 68.3417 29.6167 72.5063 29.2521C70.8042 24.4125 64.4271 12.7396 49.9688 12.5C49.9646 12.5 49.9605 12.5 49.9563 12.5C37.3709 12.2958 33.2355 23.7333 31.8896 30.5667C33.7438 29.7813 35.8605 29.3042 37.798 29.3042C37.8271 29.3042 37.8584 29.3042 37.8876 29.3042C42.6584 29.3396 45.9396 31.8854 46.8938 36.2917C47.5917 39.525 47.9271 42.3542 47.9188 44.9438C47.898 50.6083 46.7563 53.5875 45.748 56.2167L45.4271 57.0667C45.1688 57.7625 44.8959 58.4104 44.6376 59.0188C44.3751 59.6396 44.1438 60.1917 43.9751 60.6896C44.9834 60.9188 45.7751 61.2417 46.3188 61.4813L46.6334 61.6188C46.7313 61.6604 46.8292 61.7083 46.9188 61.7625C48.6855 62.8375 49.7855 64.4896 50.0209 66.4146C50.148 67.4521 50.1271 74.525 50.0834 80.6958C50.2646 83.3729 50.7188 85.6208 51.3188 87.25C52.1709 89.5708 54.3001 94.0021 58.3896 93.7479C61.2438 93.5708 63.9876 91.8333 65.8084 89.5417C67.7626 87.0813 68.4834 84.3604 68.7542 81.2958V70.8333H68.7501Z" fill="#0277BD"/>
<path d="M31.4877 60.2438C28.1272 56.7376 26.4897 52.0209 27.1043 47.6272C27.6981 43.3876 27.3627 39.2376 27.1814 37.0063C27.121 36.2626 27.0814 35.7084 27.0835 35.4022C27.0835 35.3855 27.0877 35.3709 27.0897 35.3543C27.0897 35.3459 27.0856 35.3397 27.0856 35.3313C27.3377 29.0376 29.7647 19.1084 36.446 13.2063C33.1918 11.9251 27.8918 10.2355 22.9168 10.4168C15.121 10.7001 7.57516 16.0918 8.33349 31.2501C8.61891 36.9376 15.046 71.048 23.8335 70.8334C25.0897 70.8022 26.3939 69.9959 27.7335 68.3834C29.8522 65.8355 31.9106 63.5251 33.3752 61.9168C32.7189 61.4188 32.0856 60.8688 31.4877 60.2438ZM77.1314 30.6897C77.1627 31.0105 77.1356 31.2855 77.0856 31.5397C77.1502 33.4563 76.9439 35.3168 76.7335 37.1168C76.5793 38.4418 76.421 39.8105 76.3772 41.1834C76.3335 42.5272 76.5231 43.8543 76.7231 45.2584C77.1918 48.5459 77.6793 52.2563 75.1293 56.5855C75.5981 57.2022 76.0106 57.7751 76.3397 58.3293C85.9439 42.7563 89.8147 24.2438 86.121 19.5251C80.5314 12.3834 72.7939 10.3168 66.6647 10.4168C64.746 10.448 63.0022 10.7063 61.5127 11.0293C72.0877 16.1543 76.7981 27.1376 77.1314 30.6897ZM85.4168 62.648C79.8647 63.7938 77.1939 63.1834 75.8981 62.3855C75.6897 62.5355 75.4814 62.6626 75.2877 62.7813C74.5127 63.2501 73.2856 63.9959 72.9856 68.5772C73.1585 68.6105 73.3106 68.6293 73.4981 68.6688L74.4043 68.7501C77.1543 68.8751 80.7564 68.1043 82.8689 67.123C87.421 65.0105 89.9022 61.723 85.4168 62.648ZM45.8814 66.9147C45.8043 66.2938 45.4689 65.7918 44.8564 65.3897L44.6314 65.2918C43.8793 64.9605 43.0272 64.5834 41.6668 64.5834H41.6585C41.3939 64.6043 41.1314 64.623 40.8668 64.623C40.7585 64.623 40.6522 64.6084 40.5439 64.6043C39.5564 65.3647 38.1522 65.9522 34.6772 66.6668C28.4689 68.248 32.1335 70.1147 34.5147 70.4043C36.8189 70.9813 42.296 71.6834 45.9335 68.7188C45.9231 67.7855 45.9064 67.1438 45.8814 66.9147Z" fill="#0277BD"/>
<path d="M43.0855 38.5437C42.4772 39.1729 41.5168 39.7229 40.4564 39.5521C38.7314 39.2729 37.4085 37.1917 37.5043 36.4104C37.596 35.6312 39.0689 35.225 40.7918 35.5042C41.3897 35.6021 41.9335 35.7708 42.3918 35.9792C41.7251 34.5458 40.5189 33.7187 38.6793 33.5167C35.4189 33.1542 31.9585 34.8583 31.2626 35.8021C31.2772 36.0312 31.3043 36.325 31.3314 36.6708C31.5251 39.0604 31.8835 43.5125 31.2272 48.2062C30.7939 51.3 32.046 54.8083 34.4918 57.3625C36.0689 59.0083 37.9105 60.05 39.7272 60.3583C39.9585 59.3625 40.371 58.3917 40.796 57.3896C41.0314 56.8375 41.2814 56.25 41.5168 55.6146L41.8543 54.725C42.7772 52.3187 43.7293 49.8292 43.748 44.9271C43.7564 43.0417 43.5251 40.8896 43.0855 38.5437ZM72.598 45.8479C72.3814 44.3292 72.1585 42.7563 72.2126 41.05C72.2605 39.5042 72.4314 38.0458 72.596 36.6354C72.7251 35.525 72.8251 34.4583 72.8835 33.4062C70.198 33.6292 68.4147 34.4042 67.5689 35.7146C67.9189 35.5958 68.3147 35.5021 68.7522 35.4458C70.6105 35.2042 71.9668 35.7396 72.123 36.7729C72.2376 37.5292 71.596 38.2417 71.3147 38.5146C70.7376 39.075 70.0105 39.4354 69.271 39.5313C69.1376 39.5479 69.0022 39.5562 68.871 39.5562C68.1355 39.5562 67.4335 39.3042 66.8939 38.9313C67.1272 43.0417 70.1585 48.5396 71.6501 51.2375C71.9689 51.8146 72.2147 52.275 72.4189 52.6708C73.2376 50.3396 72.9355 48.2146 72.598 45.8479Z" fill="#0277BD"/>
</svg>
