<svg width="100" height="100" viewBox="0 0 100 100" fill="none" xmlns="http://www.w3.org/2000/svg">
<path d="M50 72.25C21.495 72.25 0 62.925 0 50C0 37.075 21.495 27.5 50 27.5C78.505 27.5 100 37.075 100 50C100 62.925 78.505 72.25 50 72.25ZM50 34.83C25.6775 34.83 7.1875 42.995 7.1875 50.1575C7.1875 57.32 25.6775 65.17 50 65.17C74.3225 65.17 92.8125 57.005 92.8125 49.8425C92.8125 42.68 74.3225 34.83 50 34.83Z" fill="#4E7AB5"/>
<path d="M31.005 95.0001C28.6775 95.0001 26.5525 94.4601 24.685 93.3951C21.635 91.6526 19.4475 88.5751 18.355 84.4901C15.49 73.7851 20.1125 55.7851 30.1375 38.6301C41.9 18.5176 57.5175 5.00757 68.9975 5.00757C71.3225 5.00757 73.4475 5.54757 75.315 6.61257C78.36 8.35007 80.55 11.4251 81.6425 15.5076C84.51 26.2126 79.885 44.2151 69.855 61.3701C58.1025 81.4851 42.4875 95.0001 31.005 95.0001ZM68.9975 12.5076C61.7775 12.5076 47.975 22.9901 36.6125 42.4151C26.305 60.0551 23.2825 74.6876 25.6025 82.5501C26.23 84.6726 27.115 86.1451 28.405 86.8801C34.3075 90.2501 50.4275 79.7551 63.3825 57.5876C73.695 39.9451 77.0325 25.6251 74.3975 17.4501C73.72 15.3476 72.8875 13.8626 71.6 13.1301C70.8675 12.7101 70.015 12.5076 68.9975 12.5076Z" fill="#4E7AB5"/>
<path d="M68.9975 94.9925C57.505 94.99 41.89 81.48 30.1375 61.37C20.1125 44.215 15.49 26.2125 18.355 15.51C19.4475 11.425 21.635 8.3475 24.6825 6.6075C26.5525 5.54 28.6775 5 31 5C42.4875 5 58.1 18.515 69.855 38.63C79.8825 55.7825 84.505 73.785 81.64 84.4925C80.545 88.575 78.3575 91.65 75.315 93.3875C73.4475 94.4525 71.32 94.9925 68.9975 94.9925ZM31 12.5C29.9825 12.5 29.1325 12.705 28.4 13.12C27.1125 13.855 26.215 15.3225 25.6 17.45C23.28 25.47 26.3025 39.9475 36.61 57.5875C47.9625 77.01 61.7675 87.4925 68.995 87.4925C70.015 87.4925 70.865 87.2875 71.5975 86.87C72.8825 86.14 73.805 84.68 74.3925 82.55C76.56 74.685 73.69 60.05 63.38 42.4125C52.0275 22.985 38.225 12.5 31 12.5Z" fill="#4E7AB5"/>
<path d="M58.75 50C58.75 54.8375 54.8375 58.75 50 58.75C45.1625 58.75 41.25 54.8375 41.25 50C41.25 45.1625 45.1625 41.25 50 41.25C54.8375 41.25 58.75 45.1625 58.75 50Z" fill="#8BB7F0"/>
<path d="M50 60C44.485 60 40 55.515 40 50C40 44.485 44.485 40 50 40C55.515 40 60 44.485 60 50C60 55.515 55.515 60 50 60ZM50 42.5C45.865 42.5 42.5 45.865 42.5 50C42.5 54.135 45.865 57.5 50 57.5C54.135 57.5 57.5 54.135 57.5 50C57.5 45.865 54.135 42.5 50 42.5Z" fill="#4E7AB5"/>
<path d="M50 70.1701C23.365 70.1701 2.5 61.3101 2.5 50.0001C2.5 38.6901 23.365 29.8301 50 29.8301C76.635 29.8301 97.5 38.6901 97.5 50.0001C97.5 61.3101 76.635 70.1701 50 70.1701ZM50 32.3301C25.6075 32.3301 5 40.4226 5 50.0001C5 59.5776 25.6075 67.6701 50 67.6701C74.3925 67.6701 95 59.5801 95 50.0001C95 40.4201 74.3925 32.3301 50 32.3301Z" fill="#8BB7F0"/>
<path d="M31.005 92.5001C29.1175 92.5001 27.41 92.0701 25.9225 91.2226C23.4325 89.8001 21.7 87.3176 20.7675 83.8426C18.065 73.7501 22.59 56.4976 32.2925 39.8901C43.4475 20.8251 58.54 7.50757 68.9975 7.50757C70.8825 7.50757 72.5925 7.93757 74.0775 8.78507C76.565 10.2051 78.2975 12.6851 79.23 16.1551C81.9325 26.2476 77.4075 43.5001 67.7 60.1101C56.5525 79.1801 41.465 92.5001 31.005 92.5001ZM68.9975 10.0076C59.5375 10.0076 45.01 23.1051 34.455 41.1526C25.2175 56.9651 20.6875 73.8601 23.185 83.1976C23.9375 86.0051 25.275 87.9726 27.165 89.0526C28.2675 89.6801 29.5575 90.0001 31.0025 90.0001C40.465 90.0001 54.99 76.9001 65.5375 58.8476C74.78 43.0326 79.3125 26.1351 76.81 16.8026C76.06 14.0001 74.7225 12.0326 72.835 10.9576C71.7325 10.3276 70.4425 10.0076 68.9975 10.0076Z" fill="#8BB7F0"/>
<path d="M68.9976 92.4925C58.5301 92.49 43.4376 79.175 32.2951 60.11C22.5901 43.5025 18.0676 26.25 20.7701 16.1575C21.7001 12.6825 23.4326 10.2 25.9251 8.7775C27.4101 7.93 29.1176 7.5 31.0001 7.5C41.4626 7.5 56.5526 20.82 67.6976 39.89C77.4051 56.495 81.9276 73.7475 79.2226 83.845C78.2951 87.3175 76.5626 89.7975 74.0751 91.215C72.5901 92.0625 70.8826 92.4925 68.9976 92.4925ZM31.0001 10C29.5576 10 28.2651 10.32 27.1626 10.9475C25.2726 12.0275 23.9351 13.995 23.1826 16.8025C20.6851 26.1375 25.2151 43.035 34.4526 58.8475C45.0001 76.8925 59.5301 89.99 68.9976 89.9925C70.4426 89.9925 71.7351 89.6725 72.8376 89.0425C74.7226 87.9675 76.0601 86 76.8101 83.1975C79.3101 73.86 74.7801 56.9625 65.5401 41.1525C54.9901 23.1025 40.4676 10 31.0001 10Z" fill="#8BB7F0"/>
</svg>
