<svg width="100" height="100" viewBox="0 0 100 100" fill="none" xmlns="http://www.w3.org/2000/svg">
<path d="M87.5 12.5H12.5V87.5H87.5V12.5Z" fill="#1976D2"/>
<path d="M57.2709 45.8333H29.6396V52.6333H39.5501V83.3333H47.4021V52.6333H57.2709V45.8333Z" fill="white"/>
<path d="M81.6543 54.3416C81.6543 54.3416 77.9314 51.8582 73.723 51.8582C69.5147 51.8582 68.0001 53.8582 68.0001 55.9957C68.0001 61.5124 83.3772 60.9603 83.3772 72.0624C83.3772 89.1645 59.9313 81.5791 59.9313 81.5791V73.3749C59.9313 73.3749 64.4147 76.7541 69.7918 76.7541C75.1688 76.7541 74.9647 73.2374 74.9647 72.7541C74.9647 67.652 59.7251 67.652 59.7251 56.3416C59.7251 40.9645 81.9293 47.0312 81.9293 47.0312L81.6543 54.3416Z" fill="white"/>
</svg>
