<svg width="30" height="28" viewBox="0 0 30 28" fill="none" xmlns="http://www.w3.org/2000/svg">
<g filter="url(#filter0_i_37_700)">
<path d="M24.5 24.5L16.625 17.15C16 17.6167 15.2812 17.9861 14.4687 18.2583C13.6562 18.5306 12.7917 18.6667 11.875 18.6667C9.60417 18.6667 7.68229 17.9326 6.10938 16.4646C4.53646 14.9965 3.75 13.2028 3.75 11.0833C3.75 8.96389 4.53646 7.17014 6.10938 5.70208C7.68229 4.23403 9.60417 3.5 11.875 3.5C14.1458 3.5 16.0677 4.23403 17.6406 5.70208C19.2135 7.17014 20 8.96389 20 11.0833C20 11.9389 19.8542 12.7458 19.5625 13.5042C19.2708 14.2625 18.875 14.9333 18.375 15.5167L26.25 22.8667L24.5 24.5ZM11.875 16.3333C13.4375 16.3333 14.7656 15.8229 15.8594 14.8021C16.9531 13.7812 17.5 12.5417 17.5 11.0833C17.5 9.625 16.9531 8.38542 15.8594 7.36458C14.7656 6.34375 13.4375 5.83333 11.875 5.83333C10.3125 5.83333 8.98438 6.34375 7.89062 7.36458C6.79688 8.38542 6.25 9.625 6.25 11.0833C6.25 12.5417 6.79688 13.7812 7.89062 14.8021C8.98438 15.8229 10.3125 16.3333 11.875 16.3333Z" fill="black" fill-opacity="0.4"/>
</g>
<defs>
<filter id="filter0_i_37_700" x="0" y="0" width="30" height="32" filterUnits="userSpaceOnUse" color-interpolation-filters="sRGB">
<feFlood flood-opacity="0" result="BackgroundImageFix"/>
<feBlend mode="normal" in="SourceGraphic" in2="BackgroundImageFix" result="shape"/>
<feColorMatrix in="SourceAlpha" type="matrix" values="0 0 0 0 0 0 0 0 0 0 0 0 0 0 0 0 0 0 127 0" result="hardAlpha"/>
<feOffset dy="4"/>
<feGaussianBlur stdDeviation="2"/>
<feComposite in2="hardAlpha" operator="arithmetic" k2="-1" k3="1"/>
<feColorMatrix type="matrix" values="0 0 0 0 0 0 0 0 0 0 0 0 0 0 0 0 0 0 0.25 0"/>
<feBlend mode="normal" in2="shape" result="effect1_innerShadow_37_700"/>
</filter>
</defs>
</svg>
