<svg width="20" height="20" viewBox="0 0 20 20" fill="none" xmlns="http://www.w3.org/2000/svg">
<g clip-path="url(#clip0_41_744)" filter="url(#filter0_i_41_744)">
<path d="M14.1666 15C14.1666 13.8949 13.7277 12.8351 12.9463 12.0537C12.1649 11.2723 11.105 10.8333 9.99998 10.8333C8.89491 10.8333 7.8351 11.2723 7.0537 12.0537C6.2723 12.8351 5.83331 13.8949 5.83331 15M9.99998 7.49996V1.66663M9.99998 7.49996L13.3333 4.16663M9.99998 7.49996L6.66665 4.16663M3.51665 8.51663L4.69998 9.69996M0.833313 15H2.49998M17.5 15H19.1666M15.3 9.69996L16.4833 8.51663M19.1666 18.3333H0.833313" stroke="black" stroke-opacity="0.4" stroke-width="2" stroke-linecap="round" stroke-linejoin="round"/>
</g>
<defs>
<filter id="filter0_i_41_744" x="0" y="0" width="20" height="24" filterUnits="userSpaceOnUse" color-interpolation-filters="sRGB">
<feFlood flood-opacity="0" result="BackgroundImageFix"/>
<feBlend mode="normal" in="SourceGraphic" in2="BackgroundImageFix" result="shape"/>
<feColorMatrix in="SourceAlpha" type="matrix" values="0 0 0 0 0 0 0 0 0 0 0 0 0 0 0 0 0 0 127 0" result="hardAlpha"/>
<feOffset dy="4"/>
<feGaussianBlur stdDeviation="2"/>
<feComposite in2="hardAlpha" operator="arithmetic" k2="-1" k3="1"/>
<feColorMatrix type="matrix" values="0 0 0 0 0 0 0 0 0 0 0 0 0 0 0 0 0 0 0.25 0"/>
<feBlend mode="normal" in2="shape" result="effect1_innerShadow_41_744"/>
</filter>
<clipPath id="clip0_41_744">
<rect width="20" height="20" fill="white"/>
</clipPath>
</defs>
</svg>
