<svg width="180" height="154" viewBox="0 0 180 154" fill="none" xmlns="http://www.w3.org/2000/svg">
<g filter="url(#filter0_i_46_606)">
<circle cx="83.7984" cy="56.5248" r="56.3267" transform="rotate(179.798 83.7984 56.5248)" fill="url(#paint0_linear_46_606)"/>
</g>
<g filter="url(#filter1_i_46_606)">
<path d="M146.227 87.9264C146.242 87.6162 146.25 87.3048 146.25 86.9921C146.25 71.7352 127.614 59.3671 104.625 59.3671C86.3887 59.3671 70.8914 67.1501 65.2632 77.984C61.2212 76.5842 56.6249 75.7927 51.75 75.7927C35.5957 75.7927 22.5 84.4839 22.5 95.2049C22.5 105.926 35.5957 114.617 51.75 114.617L104.681 114.617H136.125C147.93 114.617 157.5 108.266 157.5 100.431C157.5 95.0216 152.937 90.3191 146.227 87.9264Z" fill="white"/>
</g>
<defs>
<filter id="filter0_i_46_606" x="27.4717" y="0.19812" width="112.653" height="116.653" filterUnits="userSpaceOnUse" color-interpolation-filters="sRGB">
<feFlood flood-opacity="0" result="BackgroundImageFix"/>
<feBlend mode="normal" in="SourceGraphic" in2="BackgroundImageFix" result="shape"/>
<feColorMatrix in="SourceAlpha" type="matrix" values="0 0 0 0 0 0 0 0 0 0 0 0 0 0 0 0 0 0 127 0" result="hardAlpha"/>
<feOffset dy="4"/>
<feGaussianBlur stdDeviation="2"/>
<feComposite in2="hardAlpha" operator="arithmetic" k2="-1" k3="1"/>
<feColorMatrix type="matrix" values="0 0 0 0 0 0 0 0 0 0 0 0 0 0 0 0 0 0 0.25 0"/>
<feBlend mode="normal" in2="shape" result="effect1_innerShadow_46_606"/>
</filter>
<filter id="filter1_i_46_606" x="0" y="34.5754" width="180" height="121" filterUnits="userSpaceOnUse" color-interpolation-filters="sRGB">
<feFlood flood-opacity="0" result="BackgroundImageFix"/>
<feBlend mode="normal" in="SourceGraphic" in2="BackgroundImageFix" result="shape"/>
<feColorMatrix in="SourceAlpha" type="matrix" values="0 0 0 0 0 0 0 0 0 0 0 0 0 0 0 0 0 0 127 0" result="hardAlpha"/>
<feOffset dy="2"/>
<feGaussianBlur stdDeviation="2"/>
<feComposite in2="hardAlpha" operator="arithmetic" k2="-1" k3="1"/>
<feColorMatrix type="matrix" values="0 0 0 0 0 0 0 0 0 0 0 0 0 0 0 0 0 0 0.25 0"/>
<feBlend mode="normal" in2="shape" result="effect1_innerShadow_46_606"/>
</filter>
<linearGradient id="paint0_linear_46_606" x1="83.7984" y1="112.852" x2="83.7984" y2="0.198177" gradientUnits="userSpaceOnUse">
<stop offset="0.285" stop-color="#FFE848"/>
<stop offset="1" stop-color="#30FAF0"/>
</linearGradient>
</defs>
</svg>
